<?xml version="1.0" encoding="UTF-8"?>
<svg width="204px" height="71px" viewBox="0 0 204 71" version="1.1" xmlns="http://www.w3.org/2000/svg" xmlns:xlink="http://www.w3.org/1999/xlink">
    <!-- Generator: Sketch 53.2 (72643) - https://sketchapp.com -->
    <title>Fill 1</title>
    <desc>Created with Sketch.</desc>
    <g id="Page-1" stroke="none" stroke-width="1" fill="none" fill-rule="evenodd">
        <g id="Rhinorunner.com-04" transform="translate(-738.000000, -30.000000)" fill="#000000">
            <path d="M831.527265,32.7419049 L823.268853,32.7419049 L823.602363,49.4627149 L814.219175,32.7419049 L805.964561,32.7419049 L805.964561,62.1594768 L814.219175,62.1594768 L813.932286,45.1072672 L823.268853,62.1594768 L831.527265,62.1594768 L831.527265,32.7419049 Z M820.137327,90.6077418 L803.664803,70.7708048 L803.664803,96.6653307 L806.177829,96.6653307 L806.177829,77.3251767 L822.652252,97.1619028 L822.652252,71.5483599 L820.137327,71.5483599 L820.137327,90.6077418 Z M858.959392,85.6825229 C860.968252,84.1736104 861.970678,82.1183419 861.970678,79.5200928 C861.970678,76.5455121 860.824808,74.3117815 858.532855,72.8264951 C856.644025,71.6205042 854.181626,71.0190908 851.133214,71.0190908 C848.887881,71.0190908 846.952853,71.2907921 845.318004,71.8335619 L845.318004,96.6653307 L847.838836,96.6653307 L847.838836,73.7105791 C848.686215,73.4509018 849.822593,73.3207468 851.234047,73.3207468 C853.528109,73.3207468 855.385719,73.7823014 856.797384,74.7035123 C858.526949,75.7892627 859.38593,77.4530113 859.38593,79.698555 C859.38593,81.3760152 858.699715,82.8281827 857.328763,84.0556903 C856.078051,85.2112646 854.712794,85.7909503 853.221601,85.7909503 C851.189537,85.7909503 849.677038,85.694336 848.686215,85.5080688 L860.657947,97.1619028 L862.674612,95.7810358 L854.321063,87.5983546 C856.041135,87.384875 857.592448,86.74528 858.959392,85.6825229 L858.959392,85.6825229 Z M854.534332,52.5748339 C853.305137,53.9012762 851.802342,54.5640755 850.033752,54.5640755 C848.313891,54.5640755 846.83641,53.9571775 845.589495,52.7416939 C844.212847,51.3842422 843.518616,49.5730408 843.518616,47.3042928 C843.518616,45.0918679 844.170024,43.3099884 845.467356,41.9525367 C846.684949,40.7075203 848.218964,40.0869107 850.072777,40.0869107 C851.870056,40.0869107 853.373062,40.7482333 854.575045,42.0765742 C855.781458,43.4049151 856.378441,45.1481911 856.378441,47.3042928 C856.378441,49.4914039 855.763949,51.2481806 854.534332,52.5748339 L854.534332,52.5748339 Z M850.072777,32.1193967 C845.70404,32.1193967 841.988609,33.6202932 838.932602,36.6199768 C835.876595,39.6215589 834.346588,43.2264529 834.346588,47.4285413 C834.346588,51.7991773 835.845586,55.4445734 838.849278,58.3607214 C841.847063,61.283198 845.562493,62.741272 849.993039,62.741272 C854.445312,62.741272 858.185845,61.2675878 861.216538,58.3221179 C864.245333,55.376648 865.757831,51.7447527 865.757831,47.4285413 C865.757831,43.1412298 864.229723,39.5169286 861.173927,36.558169 C858.114123,33.5987765 854.418099,32.1193967 850.072777,32.1193967 L850.072777,32.1193967 Z M793.228562,62.1594768 L801.776184,62.1594768 L801.776184,32.7419049 L793.228562,32.7419049 L793.228562,62.1594768 Z M829.276026,87.384875 L840.218331,87.384875 L840.542137,85.0465141 L829.276026,85.0465141 L829.276026,73.8523363 L841.528953,73.8523363 L841.143128,71.5483599 L826.761101,71.5483599 L826.761101,96.6653307 L842.48497,96.6653307 L843.018247,94.3267588 L829.276026,94.3267588 L829.276026,87.384875 Z M789.036389,62.1594768 L789.036389,32.7419049 L780.486868,32.7419049 L780.486868,46.4744225 L773.31252,46.4744225 L773.31252,32.7419049 L764.763211,32.7419049 L764.763211,62.1594768 L773.31252,62.1594768 L773.31252,53.5287417 L780.486868,53.5287417 L780.486868,62.1594768 L789.036389,62.1594768 Z M751.661006,85.6825229 C753.667757,84.1736104 754.672292,82.1183419 754.672292,79.5200928 C754.672292,76.5455121 753.52621,74.3117815 751.236157,72.8264951 C749.347537,71.6205042 746.877123,71.0190908 743.832929,71.0190908 C741.583588,71.0190908 739.650248,71.2907921 738.027212,71.8335619 L738.027212,96.6653307 L740.53623,96.6653307 L740.53623,73.7105791 C741.387406,73.4509018 742.518089,73.3207468 743.93545,73.3207468 C746.225715,73.3207468 748.081215,73.7823014 749.496678,74.7035123 C751.222656,75.7892627 752.083535,77.4530113 752.083535,79.698555 C752.083535,81.3760152 751.399009,82.8281827 750.031853,84.0556903 C748.779243,85.2112646 747.408501,85.7909503 745.921105,85.7909503 C743.893049,85.7909503 742.378652,85.694336 741.387406,85.5080688 L753.36146,97.1619028 L755.379812,95.7810358 L747.018669,87.5983546 C748.742538,87.384875 750.291741,86.74528 751.661006,85.6825229 L751.661006,85.6825229 Z M797.035123,90.6077418 L780.566607,70.7708048 L780.566607,96.6653307 L783.081531,96.6653307 L783.081531,77.3251767 L799.551946,97.1619028 L799.551946,71.5483599 L797.035123,71.5483599 L797.035123,90.6077418 Z M929.23911,87.4082903 C926.342158,90.3071406 922.964244,92.5817952 919.204514,94.1717118 C915.312731,95.8198502 911.182365,96.655627 906.920367,96.655627 C902.654361,96.655627 898.5183,95.8198502 894.628626,94.1717118 C890.870583,92.5817952 887.496678,90.3071406 884.593819,87.4082903 C881.691172,84.5073305 879.41272,81.1294167 877.826601,77.3677882 C876.182259,73.4798017 875.344584,69.3475372 875.344584,65.0819534 C875.344584,60.8197448 876.182259,56.6855817 877.826601,52.7937981 C879.41272,49.0359667 881.691172,45.6601624 884.593819,42.7589917 C887.496678,39.8544457 890.870583,37.5816897 894.628626,35.9915621 C898.5183,34.3474317 902.654361,33.5097564 906.920367,33.5097564 C911.182365,33.5097564 915.312731,34.3474317 919.204514,35.9915621 C922.964244,37.5816897 926.342158,39.8544457 929.23911,42.7589917 C932.141968,45.6601624 934.42042,49.0359667 936.006539,52.7937981 C937.654889,56.6855817 938.488556,60.8197448 938.488556,65.0819534 C938.488556,69.3475372 937.654889,73.4798017 936.006539,77.3677882 C934.42042,81.1294167 932.141968,84.5073305 929.23911,87.4082903 L929.23911,87.4082903 Z M906.920367,30 C887.543297,30 871.834828,45.706571 871.834828,65.0819534 C871.834828,84.4590233 887.543297,100.165594 906.920367,100.165594 C926.295749,100.165594 942,84.4590233 942,65.0819534 C942,45.706571 926.295749,30 906.920367,30 L906.920367,30 Z M751.191436,45.9778504 C750.30925,46.5870689 749.219492,46.8893577 747.912667,46.8893577 C747.555954,46.8893577 747.102204,46.8621453 746.547622,46.8081426 L746.547622,39.4627149 C746.799494,39.3793904 747.346271,39.3386774 748.207362,39.3386774 C749.427065,39.3386774 750.448898,39.6430756 751.278979,40.2501846 C752.217277,40.9129839 752.688535,41.8555005 752.688535,43.0733045 C752.688535,44.3141019 752.191963,45.2857294 751.191436,45.9778504 L751.191436,45.9778504 Z M756.465774,50.0014766 C759.618817,48.5649193 761.191436,46.0322751 761.191436,42.4100833 C761.191436,39.0922898 759.810779,36.5153465 757.04567,34.6887459 C754.443202,32.9745807 750.962768,32.1193967 746.590233,32.1193967 C743.37707,32.1193967 740.515136,32.4761101 738,33.197553 L738,62.1594768 L746.547622,62.1594768 L746.547622,48.4250606 L755.387828,62.9060226 L763.184685,59.0471469 L756.465774,50.0014766 Z M930.604367,50.2788735 C929.886721,49.1192912 929.082164,48.0219386 928.207362,46.9901909 C928.201666,46.9785888 928.191963,46.9707837 928.180572,46.9629786 C928.238582,47.1724502 931.189748,58.8610906 924.90328,69.0334353 C924.90328,69.0334353 925.395844,62.1845797 922.576521,56.6389621 C922.576521,56.6389621 921.403438,61.5023732 916.82312,63.1675984 C916.82312,63.1675984 908.845902,58.9389305 896.511549,46.4552262 C896.511549,46.4552262 901.052843,42.2742327 902.889147,37.3994304 C902.83873,37.4072355 902.77861,37.4131421 902.718279,37.4209472 C902.687269,37.4266428 902.646767,37.4306508 902.607953,37.4382449 C891.14798,39.2163274 882.001266,47.967514 879.633794,59.218015 C879.242063,61.079633 879.030693,63.0127624 879.030693,64.9925113 C879.030693,66.509018 879.158739,67.9983124 879.387406,69.4485814 C879.627887,70.9376648 879.988609,72.3843476 880.452062,73.7844109 C881.982069,74.9631895 885.902964,80.0706677 894.170868,82.2425904 C906.920367,85.5854868 912.613437,86.5220968 912.613437,86.5220968 L919.590339,89.1572619 L920.249552,89.4888725 C921.27919,88.928594 922.264318,88.3001793 923.21253,87.6177618 C929.01234,83.4331822 933.132792,77.0728826 934.389199,69.7297753 C934.439616,69.4485814 934.486236,69.1711845 934.52716,68.8939985 C934.571459,68.5682945 934.614281,68.2423795 934.652885,67.9128784 C934.656893,67.8740639 934.664698,67.8350385 934.664698,67.792427 C934.757726,66.8773336 934.802236,65.9544352 934.802236,65.0159266 L934.802236,64.9925113 C934.802236,64.6514081 934.790845,64.3273916 934.781141,64.0016876 C934.602679,58.9737369 933.101783,54.2889991 930.604367,50.2788735 L930.604367,50.2788735 Z M773.940935,88.7307246 C773.940935,92.6980276 771.675773,94.6815737 767.140386,94.6815737 C764.708997,94.6815737 762.942306,94.1911191 761.846641,93.2118975 C760.747179,92.2307773 760.198713,90.7395844 760.198713,88.7307246 L760.198713,71.5483599 L757.685476,71.5483599 L757.685476,88.4824386 C757.685476,90.8695285 758.275076,92.7910558 759.455754,94.2569349 C761.010864,96.1961818 763.525999,97.1619028 766.999051,97.1619028 C770.566818,97.1619028 773.139753,96.1845797 774.720177,94.2221285 C775.877861,92.7794536 776.455859,90.8695285 776.455859,88.4824386 L776.455859,71.5483599 L773.940935,71.5483599 L773.940935,88.7307246 Z" id="Fill-1"></path>
        </g>
    </g>
</svg>